<svg width="48" height="48" viewBox="0 0 48 48" fill="none" xmlns="http://www.w3.org/2000/svg">
<path d="M18 17.25V14.75C18 14.375 18.3125 14 18.75 14H21.25C21.625 14 22 14.375 22 14.75V17.25C22 17.6875 21.625 18 21.25 18H18.75C18.3125 18 18 17.6875 18 17.25ZM26.75 18C26.3125 18 26 17.6875 26 17.25V14.75C26 14.375 26.3125 14 26.75 14H29.25C29.625 14 30 14.375 30 14.75V17.25C30 17.6875 29.625 18 29.25 18H26.75ZM18.75 24C18.3125 24 18 23.6875 18 23.25V20.75C18 20.375 18.3125 20 18.75 20H21.25C21.625 20 22 20.375 22 20.75V23.25C22 23.6875 21.625 24 21.25 24H18.75ZM26.75 24C26.3125 24 26 23.6875 26 23.25V20.75C26 20.375 26.3125 20 26.75 20H29.25C29.625 20 30 20.375 30 20.75V23.25C30 23.6875 29.625 24 29.25 24H26.75ZM22 29.25C22 29.6875 21.625 30 21.25 30H18.75C18.3125 30 18 29.6875 18 29.25V26.75C18 26.375 18.3125 26 18.75 26H21.25C21.625 26 22 26.375 22 26.75V29.25ZM26.75 30C26.3125 30 26 29.6875 26 29.25V26.75C26 26.375 26.3125 26 26.75 26H29.25C29.625 26 30 26.375 30 26.75V29.25C30 29.6875 29.625 30 29.25 30H26.75ZM38 37.75V40H10V37.75C10 37.375 10.3125 37 10.75 37H11.9375V9.5C11.9375 8.6875 12.625 8 13.4375 8H34.5C35.3125 8 36 8.6875 36 9.5V37H37.25C37.625 37 38 37.375 38 37.75ZM14.9375 36.9375H22V32.75C22 32.375 22.3125 32 22.75 32H25.25C25.625 32 26 32.375 26 32.75V36.9375H33V11.0625L15 11L14.9375 36.9375Z" fill="white"/>
</svg>
